<svg width="100" height="50" viewBox="0 0 100 50" fill="none" xmlns="http://www.w3.org/2000/svg">
<path d="M1.33333 42.5543C1.33333 44.0271 2.52724 45.221 4 45.221C5.47276 45.221 6.66667 44.0271 6.66667 42.5543C6.66667 41.0816 5.47276 39.8877 4 39.8877C2.52724 39.8877 1.33333 41.0816 1.33333 42.5543ZM43.4286 14.7038L42.9774 14.9192L42.9774 14.9192L43.4286 14.7038ZM85.3215 32.5281L84.8584 32.3396L84.8584 32.3396L85.3215 32.5281ZM93.3333 3.56356C93.3333 5.03632 94.5272 6.23022 96 6.23022C97.4728 6.23022 98.6667 5.03632 98.6667 3.56356C98.6667 2.0908 97.4728 0.896889 96 0.896889C94.5272 0.896889 93.3333 2.0908 93.3333 3.56356ZM4 42.5543L3.5 42.5543C3.5 42.9829 3.51941 43.337 3.56331 43.6121C3.58526 43.7496 3.61543 43.8811 3.65893 43.9984C3.70045 44.1103 3.76731 44.2458 3.88388 44.355C4.01654 44.4794 4.19715 44.5525 4.39829 44.5334C4.57453 44.5166 4.71336 44.434 4.80637 44.3629C4.98921 44.2231 5.15517 44.0029 5.30489 43.7698C5.91209 42.8247 6.77749 40.8048 7.84581 38.2177C10.004 32.9915 13.0701 25.2439 16.7497 18.3699C18.589 14.9337 20.5729 11.7329 22.6616 9.18389C24.7565 6.62742 26.9214 4.77053 29.1109 3.95728C31.2631 3.15785 33.4786 3.3504 35.7749 4.98281C38.1019 6.63701 40.5239 9.78125 42.9774 14.9192L43.4286 14.7038L43.8798 14.4883C41.3963 9.28747 38.8835 5.96568 36.3543 4.16777C33.7945 2.34807 31.2326 2.10243 28.7627 3.01986C26.33 3.92347 24.0282 5.93848 21.8881 8.55008C19.742 11.1692 17.723 14.4326 15.868 17.898C12.159 24.827 9.07063 32.6317 6.92152 37.836C5.83622 40.4642 5.00978 42.3791 4.46355 43.2293C4.32491 43.4451 4.23616 43.5401 4.19915 43.5683C4.18223 43.5813 4.21984 43.5458 4.30373 43.5379C4.41251 43.5275 4.50962 43.5709 4.5678 43.6255C4.60989 43.6649 4.61128 43.6904 4.59648 43.6506C4.58367 43.616 4.56669 43.554 4.55081 43.4544C4.51902 43.2553 4.5 42.9613 4.5 42.5543L4 42.5543ZM43.4286 14.7038L42.9774 14.9192C47.9234 25.2769 52.5175 32.8577 56.7646 38.0831C61.0048 43.2999 64.9398 46.2195 68.581 47.1606C72.2633 48.1124 75.5603 47.0204 78.4295 44.4259C81.2788 41.8493 83.7227 37.7819 85.7846 32.7167L85.3215 32.5281L84.8584 32.3396C82.8212 37.3442 80.4473 41.253 77.7588 43.6842C75.09 46.0975 72.1289 47.0448 68.8312 46.1924C65.4925 45.3295 61.7257 42.6015 57.5406 37.4524C53.3624 32.3118 48.8078 24.8083 43.8798 14.4883L43.4286 14.7038ZM85.3215 32.5281L85.7846 32.7167C89.8867 22.6396 92.5594 15.3904 94.2073 10.6579C95.0313 8.29169 95.599 6.55458 95.9612 5.40771C96.1422 4.83427 96.2719 4.40838 96.3565 4.1252C96.3988 3.9836 96.4298 3.87768 96.4504 3.80682C96.4606 3.77139 96.4683 3.74473 96.4734 3.72676C96.476 3.71777 96.4779 3.71096 96.4792 3.70631C96.4799 3.70398 96.4804 3.7022 96.4808 3.70095C96.4809 3.70033 96.4811 3.69984 96.4812 3.69949C96.4812 3.69931 96.4813 3.69915 96.4813 3.69906C96.4813 3.69893 96.4814 3.69883 96 3.56356C95.5186 3.42828 95.5187 3.42825 95.5187 3.42825C95.5186 3.4283 95.5186 3.42834 95.5186 3.42843C95.5186 3.42862 95.5185 3.42894 95.5183 3.42939C95.5181 3.43031 95.5177 3.43176 95.5171 3.43375C95.516 3.43774 95.5142 3.44389 95.5118 3.45222C95.5071 3.46887 95.4998 3.49422 95.4899 3.52834C95.4701 3.59659 95.4399 3.69994 95.3983 3.83899C95.3153 4.11709 95.1871 4.538 95.0076 5.10659C94.6485 6.24378 94.0838 7.97165 93.2629 10.3291C91.6212 15.044 88.9546 22.2771 84.8584 32.3396L85.3215 32.5281Z" fill="#FF0000"/>
</svg>
