<svg xmlns="http://www.w3.org/2000/svg"  viewBox="0 0 50 50" width="50px" height="50px"><path d="M30.418,6H18.582c-0.724,0-1.392,0.391-1.745,1.023L3.423,30.988c-0.359,0.642-0.337,1.429,0.057,2.05l6.38,10.035 C10.228,43.65,10.864,44,11.548,44h25.903c0.684,0,1.321-0.35,1.688-0.927l6.38-10.035c0.395-0.621,0.417-1.408,0.057-2.05 L32.163,7.023C31.809,6.391,31.142,6,30.418,6z M30.41,8L43.3,31H32.61L20.65,8H30.41z M30.35,31H18.47l5.98-11.34L30.35,31z M5.16,31.97L18.49,8.19l4.84,9.31L10.92,41.01L5.16,31.97z M37.45,42H12.66l4.75-9h25.77L37.45,42z"/></svg>